<mxfile host="65bd71144e">
    <diagram id="prtHgNgQTEPvFCAcTncT" name="Page-1">
        <mxGraphModel dx="1664" dy="1560" grid="1" gridSize="10" guides="1" tooltips="1" connect="1" arrows="1" fold="1" page="1" pageScale="1" pageWidth="827" pageHeight="1169" math="0" shadow="0">
            <root>
                <mxCell id="0"/>
                <mxCell id="1" parent="0"/>
                <mxCell id="mDChOTRl_OUbyX4apc6L-8" style="edgeStyle=orthogonalEdgeStyle;rounded=0;orthogonalLoop=1;jettySize=auto;html=1;fontSize=18;" parent="1" source="mDChOTRl_OUbyX4apc6L-1" target="mDChOTRl_OUbyX4apc6L-7" edge="1">
                    <mxGeometry relative="1" as="geometry"/>
                </mxCell>
                <mxCell id="9" style="edgeStyle=none;html=1;entryX=0.5;entryY=0;entryDx=0;entryDy=0;exitX=1;exitY=0.5;exitDx=0;exitDy=0;" parent="1" source="mDChOTRl_OUbyX4apc6L-1" target="2" edge="1">
                    <mxGeometry relative="1" as="geometry"/>
                </mxCell>
                <mxCell id="10" style="edgeStyle=none;html=1;entryX=0.5;entryY=0;entryDx=0;entryDy=0;exitX=0;exitY=0.5;exitDx=0;exitDy=0;" parent="1" source="mDChOTRl_OUbyX4apc6L-1" target="mDChOTRl_OUbyX4apc6L-2" edge="1">
                    <mxGeometry relative="1" as="geometry"/>
                </mxCell>
                <mxCell id="11" style="edgeStyle=none;html=1;entryX=0.5;entryY=0;entryDx=0;entryDy=0;exitX=1;exitY=0.5;exitDx=0;exitDy=0;" parent="1" source="mDChOTRl_OUbyX4apc6L-1" target="mDChOTRl_OUbyX4apc6L-11" edge="1">
                    <mxGeometry relative="1" as="geometry"/>
                </mxCell>
                <mxCell id="mDChOTRl_OUbyX4apc6L-1" value="&lt;font style=&quot;font-size: 18px;&quot;&gt;URL：zerda.jp&lt;br&gt;&lt;/font&gt;HPとしての役割&lt;br&gt;各サービスへのリンク" style="rounded=0;whiteSpace=wrap;html=1;" parent="1" vertex="1">
                    <mxGeometry x="280" y="40" width="280" height="120" as="geometry"/>
                </mxCell>
                <mxCell id="6" style="edgeStyle=none;html=1;entryX=0;entryY=0.5;entryDx=0;entryDy=0;exitX=0.5;exitY=1;exitDx=0;exitDy=0;" parent="1" source="mDChOTRl_OUbyX4apc6L-2" target="mDChOTRl_OUbyX4apc6L-6" edge="1">
                    <mxGeometry relative="1" as="geometry"/>
                </mxCell>
                <mxCell id="mDChOTRl_OUbyX4apc6L-2" value="&lt;font style=&quot;font-size: 18px;&quot;&gt;URL：tracker.zerda.jp&lt;br&gt;&lt;/font&gt;APIを使用してユーザーの戦績を表示&lt;br&gt;各ゲームのAPIに合わせて柔軟に作成" style="rounded=0;whiteSpace=wrap;html=1;" parent="1" vertex="1">
                    <mxGeometry x="-40" y="200" width="280" height="120" as="geometry"/>
                </mxCell>
                <mxCell id="mDChOTRl_OUbyX4apc6L-6" value="&lt;font style=&quot;font-size: 18px;&quot;&gt;URL：profile.Zerda.jp&lt;br&gt;&lt;/font&gt;それぞれの情報をアカウントに紐づけまとめる&lt;br&gt;使用デバイスやプレイ時間も編集可能&lt;br&gt;ユーザー同士のフレンド機能や募集機能,ログイン機能" style="rounded=0;whiteSpace=wrap;html=1;" parent="1" vertex="1">
                    <mxGeometry x="280" y="400" width="280" height="120" as="geometry"/>
                </mxCell>
                <mxCell id="mDChOTRl_OUbyX4apc6L-9" style="edgeStyle=orthogonalEdgeStyle;rounded=0;orthogonalLoop=1;jettySize=auto;html=1;entryX=0.5;entryY=0;entryDx=0;entryDy=0;fontSize=12;" parent="1" source="mDChOTRl_OUbyX4apc6L-7" target="mDChOTRl_OUbyX4apc6L-6" edge="1">
                    <mxGeometry relative="1" as="geometry"/>
                </mxCell>
                <mxCell id="mDChOTRl_OUbyX4apc6L-7" value="&lt;font style=&quot;&quot;&gt;URL：sens.zerda.jp&lt;br&gt;&lt;font style=&quot;font-size: 12px;&quot;&gt;マウス感度計算・変換・保存・平均・共有&lt;/font&gt;&lt;br&gt;&lt;/font&gt;" style="rounded=0;whiteSpace=wrap;html=1;fontSize=18;" parent="1" vertex="1">
                    <mxGeometry x="280" y="200" width="280" height="120" as="geometry"/>
                </mxCell>
                <mxCell id="8" style="edgeStyle=none;html=1;exitX=0.5;exitY=1;exitDx=0;exitDy=0;" parent="1" source="mDChOTRl_OUbyX4apc6L-11" edge="1">
                    <mxGeometry relative="1" as="geometry">
                        <mxPoint x="559.9999999999995" y="460" as="targetPoint"/>
                    </mxGeometry>
                </mxCell>
                <mxCell id="mDChOTRl_OUbyX4apc6L-11" value="&lt;font style=&quot;font-size: 18px&quot;&gt;URL：coach.zerda.jp&lt;br&gt;&lt;/font&gt;コーチング用マッチングサイト" style="rounded=0;whiteSpace=wrap;html=1;" parent="1" vertex="1">
                    <mxGeometry x="920" y="200" width="280" height="120" as="geometry"/>
                </mxCell>
                <mxCell id="mDChOTRl_OUbyX4apc6L-13" value="&lt;h1&gt;MISSION&lt;/h1&gt;&lt;p&gt;&lt;font style=&quot;font-size: 14px;&quot;&gt;&quot;GAMER&quot;に最高のツールを提供する&lt;/font&gt;&lt;/p&gt;&lt;p&gt;&lt;font style=&quot;font-size: 12px;&quot;&gt;策定：2022/11/23&lt;/font&gt;&lt;/p&gt;" style="text;html=1;strokeColor=none;fillColor=none;spacing=5;spacingTop=-20;whiteSpace=wrap;overflow=hidden;rounded=0;fontSize=12;align=center;" parent="1" vertex="1">
                    <mxGeometry x="300" y="-70" width="240" height="120" as="geometry"/>
                </mxCell>
                <mxCell id="7" style="edgeStyle=none;html=1;entryX=1;entryY=0.5;entryDx=0;entryDy=0;exitX=0.5;exitY=1;exitDx=0;exitDy=0;" parent="1" source="2" target="mDChOTRl_OUbyX4apc6L-6" edge="1">
                    <mxGeometry relative="1" as="geometry"/>
                </mxCell>
                <mxCell id="2" value="&lt;font style=&quot;font-size: 18px&quot;&gt;URL：guide.zerda.jp&lt;br&gt;&lt;/font&gt;ゲーマー向けナレッジシェア・ガイド" style="rounded=0;whiteSpace=wrap;html=1;" parent="1" vertex="1">
                    <mxGeometry x="600" y="200" width="280" height="120" as="geometry"/>
                </mxCell>
                <mxCell id="12" value="&lt;font style=&quot;font-size: 18px;&quot;&gt;URL：docs.zerda.jp&lt;br&gt;&lt;/font&gt;mdbookを使用し、各ツールのdocsを作成&lt;br&gt;とりあえずここを見れば解決する。" style="rounded=0;whiteSpace=wrap;html=1;" vertex="1" parent="1">
                    <mxGeometry x="-360" y="200" width="280" height="120" as="geometry"/>
                </mxCell>
            </root>
        </mxGraphModel>
    </diagram>
</mxfile>